<?xml version="1.0" standalone="no"?>
<!DOCTYPE svg PUBLIC "-//W3C//DTD SVG 20010904//EN"
 "http://www.w3.org/TR/2001/REC-SVG-20010904/DTD/svg10.dtd">
<svg version="1.0" xmlns="http://www.w3.org/2000/svg"
 width="884.000000pt" height="884.000000pt" viewBox="0 0 884.000000 884.000000"
 preserveAspectRatio="xMidYMid meet">
<metadata>
Created by potrace 1.14, written by Peter Selinger 2001-2017
</metadata>
<g transform="translate(0.000000,884.000000) scale(0.100000,-0.100000)"
fill="#000000" stroke="none">
<path d="M3880 8825 c-176 -22 -314 -46 -420 -71 -191 -45 -275 -68 -280 -75
-3 -4 -43 -17 -90 -29 -88 -22 -228 -68 -245 -80 -5 -4 -50 -22 -100 -40 -114
-41 -509 -235 -595 -292 -36 -24 -92 -58 -125 -77 -33 -18 -82 -51 -110 -73
-27 -22 -91 -69 -140 -106 -188 -139 -319 -253 -505 -442 -85 -86 -173 -176
-196 -201 -67 -73 -218 -261 -254 -314 -19 -27 -36 -52 -40 -55 -11 -9 -123
-185 -163 -255 -22 -38 -43 -72 -47 -75 -6 -4 -42 -70 -121 -220 -30 -58 -109
-231 -109 -240 0 -6 -5 -21 -12 -33 -7 -12 -22 -49 -34 -82 -11 -33 -35 -96
-52 -141 -29 -78 -53 -157 -112 -384 -96 -366 -126 -621 -123 -1065 1 -371 29
-670 87 -930 9 -38 16 -80 16 -92 0 -12 6 -37 14 -55 8 -18 27 -78 41 -133 47
-175 101 -335 170 -500 36 -88 74 -178 82 -200 9 -22 24 -51 33 -65 9 -14 20
-32 24 -40 4 -8 20 -37 36 -65 26 -46 58 -109 74 -145 7 -16 52 -85 132 -201
28 -41 65 -96 84 -124 18 -27 48 -66 66 -85 17 -19 45 -53 60 -76 118 -169
450 -513 641 -665 102 -82 267 -207 319 -244 31 -22 62 -45 68 -50 6 -6 41
-27 77 -47 36 -21 90 -54 120 -74 82 -55 488 -256 544 -269 16 -4 55 -18 85
-32 30 -14 87 -36 125 -50 215 -75 328 -112 366 -118 24 -4 73 -15 109 -25
189 -53 406 -87 695 -111 376 -30 594 -22 1010 37 169 24 432 84 590 134 163
52 191 61 210 69 11 5 36 16 55 24 19 8 80 32 135 52 55 20 170 71 255 113 85
43 157 78 160 80 4 1 12 -10 20 -25 24 -52 131 -298 146 -338 38 -96 100 -225
109 -225 7 0 18 83 29 213 10 116 22 248 26 292 5 44 9 121 9 170 1 50 5 95 9
101 7 10 116 94 162 124 41 27 114 83 150 114 20 17 58 49 85 71 254 205 589
559 735 775 24 36 50 71 57 78 69 70 354 573 412 727 11 28 38 93 60 145 43
98 164 458 176 520 3 19 21 96 40 170 35 141 78 408 95 595 15 166 12 614 -5
789 -23 229 -54 427 -90 566 -18 69 -36 143 -40 164 -10 59 -102 343 -135 421
-5 11 -27 67 -50 125 -101 257 -280 582 -460 835 -199 281 -442 548 -695 763
-49 42 -94 82 -100 88 -5 6 -30 26 -55 44 -25 19 -52 40 -60 47 -47 41 -337
239 -400 272 -25 13 -52 29 -60 35 -56 41 -290 161 -440 226 -41 18 -87 38
-102 46 -132 70 -728 243 -938 273 -356 51 -353 51 -788 50 -256 -1 -454 -7
-512 -14z"/>
</g>
</svg>
